# xmcd
#
# Track frame offsets: 
#        150
#        13729
#        23976
#        35992
#        49190
#        61020
#        75588
#        86561
#        99664
#        108588
#        127756
#        140084
#        149698
#        159529
#        189753
#        208907
#        223146
#        233898
#        244726
#        268792
#        285000
#
# Disc length: 3928 seconds
#
# Revision: 0
# Processed by: cddbd v1.5.2PL0 Copyright (c) Steve Scherf et al.
# Submitted via: ExactAudioCopy v0.90b4
#
DISCID=320f5615
DTITLE=Stevie Barr - Stevie Barr with Friends
DYEAR=2007
DGENRE=Bluegrass
TTITLE0=Loneseome Road Blues
TTITLE1=Fortune
TTITLE2=He Was Born In Bethlehem
TTITLE3=Sally Ann
TTITLE4=Bye Bye Blues
TTITLE5=It's Sinful to Flirt
TTITLE6=Old Jimmy Sutton
TTITLE7=Viagra Blues
TTITLE8=No Place Like Father's House
TTITLE9=Uncle Joe
TTITLE10=Mary In The Wild Moore
TTITLE11=At Calvary
TTITLE12=Durang's Hornpipe
TTITLE13=Barbara Allen
TTITLE14=Sweet Sunny South
TTITLE15=Train #1252
TTITLE16=Dust On The Bible
TTITLE17=Shane's Reel
TTITLE18=I Wonder If I Done My Best For Jesus
TTITLE19=Foggy Mountain Breakdown
TTITLE20=Leaving Grayson
EXTD=
EXTT0=
EXTT1=
EXTT2=
EXTT3=
EXTT4=
EXTT5=
EXTT6=
EXTT7=
EXTT8=
EXTT9=
EXTT10=
EXTT11=
EXTT12=
EXTT13=
EXTT14=
EXTT15=
EXTT16=
EXTT17=
EXTT18=
EXTT19=
EXTT20=
PLAYORDER=
